<svg width="30" height="30" viewBox="0 0 30 30" fill="none" xmlns="http://www.w3.org/2000/svg">
<g clip-path="url(#clip0_16_466)">
<path d="M15 30.0001C23.2843 30.0001 30 23.2843 30 15.0001C30 6.71579 23.2843 6.10352e-05 15 6.10352e-05C6.71573 6.10352e-05 0 6.71579 0 15.0001C0 23.2843 6.71573 30.0001 15 30.0001Z" fill="#2DAAE1"/>
<path d="M24.6177 9.03323C23.9102 9.34718 23.1503 9.55942 22.3513 9.65482C23.1667 9.16652 23.7914 8.39274 24.0864 7.47181C23.3118 7.93188 22.464 8.25577 21.58 8.42941C20.8605 7.66255 19.8346 7.18378 18.6996 7.18378C16.521 7.18378 14.7542 8.9499 14.7542 11.1298C14.7542 11.4386 14.789 11.7399 14.8559 12.0292C11.5763 11.8644 8.66875 10.2935 6.72257 7.90642C6.38274 8.48941 6.18823 9.16723 6.18823 9.89044C6.18823 11.2593 6.88495 12.467 7.94361 13.1745C7.3169 13.1551 6.70395 12.9859 6.15599 12.6811V12.731C6.15599 14.643 7.51597 16.2374 9.32126 16.6C8.98963 16.6908 8.6416 16.7383 8.28155 16.7383C8.02699 16.7383 7.78001 16.7142 7.53873 16.6688C8.04089 18.236 9.4982 19.3768 11.2244 19.409C9.87394 20.4677 8.17225 21.0987 6.32402 21.0987C6.00568 21.0987 5.69106 21.0797 5.3822 21.0425C7.12877 22.1624 9.20253 22.8162 11.431 22.8162C18.6889 22.8162 22.6583 16.8034 22.6583 11.589C22.6583 11.4178 22.6545 11.2479 22.6462 11.0786C23.4196 10.5192 24.0872 9.82664 24.6177 9.03323Z" fill="white"/>
</g>
<defs>
<clipPath id="clip0_16_466">
<rect width="30" height="30" fill="white"/>
</clipPath>
</defs>
</svg>
